<svg xmlns="http://www.w3.org/2000/svg" id="programming-languages" viewBox="0 0 64 64">
  <path d="m56,10H8c-2.76,0-5,2.24-5,5v28c0,.55.45,1,1,1h56c.55,0,1-.45,1-1V15c0-2.76-2.24-5-5-5Z" style="fill:#f1f2f2"></path>
  <rect width="42" height="38" x="11" y="6" rx="1" ry="1" style="fill:#0fb2f3"></rect>
  <path d="m52,8H12c-.55,0-1-.45-1-1V3c0-.55.45-1,1-1h40c.55,0,1,.45,1,1v4c0,.55-.45,1-1,1ZM13,6h38v-2H13v2Z"></path>
  <path d="m52,2H12c-.55,0-1,.45-1,1v5h42V3c0-.55-.45-1-1-1Z" style="fill:#085a8c"></path>
  <rect width="14" height="10" x="25" y="48" rx="1" ry="1" style="fill:#032940"></rect>
  <g>
    <path d="M61 42H3v3c0 2.76 2.24 5 5 5h48c2.76 0 5-2.24 5-5v-3ZM40 56h-16c-2.76 0-5 2.24-5 5 0 .55.45 1 1 1h24c.55 0 1-.45 1-1 0-2.76-2.24-5-5-5Z" style="fill:#3df2e1"></path>
  </g>
  <path d="M43 27h-3c-.55 0-1-.45-1-1s.45-1 1-1h2v-4c0-.27.11-.52.29-.71l1.29-1.29-1.29-1.29c-.19-.19-.29-.44-.29-.71v-4h-2c-.55 0-1-.45-1-1s.45-1 1-1h3c.55 0 1 .45 1 1v4.59l1.71 1.71c.39.39.39 1.02 0 1.41l-1.71 1.71v4.59c0 .55-.45 1-1 1ZM24 27h-3c-.55 0-1-.45-1-1v-4.59l-1.71-1.71c-.39-.39-.39-1.02 0-1.41l1.71-1.71v-4.59c0-.55.45-1 1-1h3c.55 0 1 .45 1 1s-.45 1-1 1h-2v4c0 .27-.11.52-.29.71l-1.29 1.29 1.29 1.29c.19.19.29.44.29.71v4h2c.55 0 1 .45 1 1s-.45 1-1 1Z" style="fill:#fff"></path>
  <path d="M27 20h-2c-.55 0-1-.45-1-1s.45-1 1-1h2c.55 0 1 .45 1 1s-.45 1-1 1ZM33 20h-2c-.55 0-1-.45-1-1s.45-1 1-1h2c.55 0 1 .45 1 1s-.45 1-1 1ZM39 20h-2c-.55 0-1-.45-1-1s.45-1 1-1h2c.55 0 1 .45 1 1s-.45 1-1 1ZM24 31h-5c-.55 0-1-.45-1-1s.45-1 1-1h5c.55 0 1 .45 1 1s-.45 1-1 1ZM45 31h-17c-.55 0-1-.45-1-1s.45-1 1-1h17c.55 0 1 .45 1 1s-.45 1-1 1ZM45 35h-4c-.55 0-1-.45-1-1s.45-1 1-1h4c.55 0 1 .45 1 1s-.45 1-1 1ZM37 35h-18c-.55 0-1-.45-1-1s.45-1 1-1h18c.55 0 1 .45 1 1s-.45 1-1 1ZM45 39h-26c-.55 0-1-.45-1-1s.45-1 1-1h26c.55 0 1 .45 1 1s-.45 1-1 1Z" style="fill:#fff"></path>
</svg>
